# xmcd
#
# Track frame offsets:
#	150
#	63662
#	106838
#	152528
#	208773
#	244565
#	286897
#	330927
#
# Disc length: 4702 seconds
#
# Revision: 1
# Processed by: cddbd v1.5.2PL0 Copyright (c) Steve Scherf et al.
# Submitted via: audiograbber 1.83.01
#
DISCID=65125c08
DTITLE=TM Solver - Sparkling
DYEAR=2013
DGENRE=Electronic
TTITLE0=Sparkling
TTITLE1=Metamorphose
TTITLE2=Anamorphic
TTITLE3=Return to 70s
TTITLE4=Porzellan
TTITLE5=Sonic Batic
TTITLE6=Long Walk
TTITLE7=Organ Lesson
EXTD=
EXTT0=
EXTT1=
EXTT2=
EXTT3=
EXTT4=
EXTT5=
EXTT6=
EXTT7=
PLAYORDER=
